<?xml version="1.0" encoding="UTF-8"?>
<svg id="Layer_1" xmlns="http://www.w3.org/2000/svg" xmlns:xlink="http://www.w3.org/1999/xlink" version="1.1" viewBox="0 0 512 512">
  <!-- Generator: Adobe Illustrator 29.0.1, SVG Export Plug-In . SVG Version: 2.1.0 Build 192)  -->
  <defs>
    <style>
      .st0 {
        fill: none;
      }

      .st1 {
        clip-path: url(#clippath-1);
      }

      .st2 {
        clip-path: url(#clippath);
      }
    </style>
    <clipPath id="clippath">
      <ellipse class="st0" cx="256.5" cy="255.5" rx="255.5" ry="256.5"/>
    </clipPath>
    <clipPath id="clippath-1">
      <rect class="st0" width="512" height="512"/>
    </clipPath>
  </defs>
  <path d="M399,384.2c-22.1-38.4-63.6-64.2-111-64.2h-64c-47.4,0-88.9,25.8-111,64.2,35.2,39.2,86.2,63.8,143,63.8s107.8-24.7,143-63.8ZM0,256C0,114.6,114.6,0,256,0s256,114.6,256,256-114.6,256-256,256S0,397.4,0,256ZM256,272c39.8,0,72-32.2,72-72s-32.2-72-72-72-72,32.2-72,72,32.2,72,72,72Z"/>
  <g id="Layer_2">
    <circle class="st0" cx="254.7" cy="254.8" r="254.7"/>
    <g class="st2">
      <g class="st1">
        <image width="512" height="512" xlink:href="../../Documents/Lede/githubpfp.jpeg"/>
      </g>
    </g>
  </g>
</svg>